<svg xmlns="http://www.w3.org/2000/svg" viewBox="0 0 13.229 13.229"><path d="M8.36 12.682h.407l.246.089.106.14-.14.142H7.337l-.282-.247v-.282l.247-.265v-.37l.052-.918h-.3l-.687.477-.441.176-.441.194-.477.318v.352l.177.194.14.194.019.177-.177.176h-.335l-.594-.9-.13-.405.13-.124.188-.105.353-.106.83-.776.317-.265.458-.212-.317-.688-.212-.511-.37-.37-.07-.618.105-.3.053-.388-.088-.194.053-1.023-.16-.794.107-.617.282-.635.459-.23-.036-.176-.194-.34.159-.365.617-.3.635-.141h.3l.247.194.088.212-.035.246.141.153.035.165.089.353v.14l-.3.213-.265.088h-.353l-.088.123v.177l.247.352.141.336-.017.44-.124.283-.159.158.089.565.326.582.185.459.088.194.23.458.088.406v.265l-.106.317-.123.123.229.177v.6l-.159.511-.106 1.27.018.23z"/></svg>
