<svg xmlns="http://www.w3.org/2000/svg" viewBox="0 0 13.229 13.229"><path d="M8.34 9.593l-.044.098v.153l.175.164.055.327-.066.535-.022.295-.054.754.032.218.066.098.044.208.098.131.218.11.36.108.154.088v.087h-.197l-.273.087-.47-.054-.36.054H7.75l-.109-.163-.044-.208.066-.12.087-.295-.054-.35-.11-.174-.076-.24-.022-.284.011-.262.044-.131-.186-.284-.186-.273-.185-.317-.077-.065v.305l-.065.492-.098.382v.142l-.339.218-.426.317-.218.12h-.186l-.513.219-.35.25.044.11.262.164.219.24.25.12-.032.164h-.186l-.316.098-.437-.065-.35-.328-.294-.273.054-.371.23-.175.404-.36.305-.175.164-.273.295-.219.284-.185.131-.164-.131-.874-.055-.48-.273-.502-.087-.961.087-1.092.175-.874.317-.502.524-.59.491-.371.448-.35.371-.076h.503l.24.185.044.23.142.043.021.088-.098.207.087.022.066.219-.055.13-.152.033.272-.022.011.164-.087.208-.186.153-.24.043-.524.011-.262-.207-.077.087-.076.066v.12l.076.12.077.142v.623l-.077.25-.076.383.076.109.197.382.24.24.306.448.197.339.065.196.088.306v.175z"/></svg>
