<svg xmlns="http://www.w3.org/2000/svg" viewBox="0 0 13.229 13.229"><path d="M5.37 13.016l.223.213h.462l.39-.089h.32l.747.09.284-.09-.089-.106-.337-.231-.462-.658-.036-.213.924-1.404.214-.604.373-.391V8.52l-.995-1.262-.25-.373.054-.977-.018-.889-.088-.444.266-.284-.266-.498-.471-.504.115-.242h.409l.284-.302.142-.267-.089-.089-.035-.124-.16-.267.071-.195-.16-.196h-.106l-.196-.284h-.373l-.498.124-.444.285-.373.586.142.267.142.23.036.232-.25.242-.301.344-.125.675v.658l.125.693.213.604v1.12l.124.693.374.355v1.137l.213.48-.089.249-.178.889.054.568v.551l-.16.444z"/></svg>
